<?xml version="1.0" encoding="utf-8"?>
<!-- Generator: Adobe Illustrator 23.0.3, SVG Export Plug-In . SVG Version: 6.00 Build 0)  -->
<svg version="1.1" id="Layer_1" xmlns="http://www.w3.org/2000/svg" xmlns:xlink="http://www.w3.org/1999/xlink" x="0px" y="0px"
	 viewBox="0 0 561.2 203" style="enable-background:new 0 0 561.2 203;" xml:space="preserve">
<style type="text/css">
	.st0{fill:#FFFFFF;}
</style>
<g>
	<g>
		<path class="st0" d="M289.4,19.8c0.4-4.8-3.6-9.2-8-9.2c-4.8-0.4-9.2,3.6-9.2,8c0,0.4,0,0.4,0,0.8c0,4,2.4,7.6,6.4,8.4
			c0,11.6,0,60,0,85.7c0,0.8,0,1.6,0,2h4v-2.4c0-26,0-74.1,0-85.7C286.6,27.4,289.4,23.8,289.4,19.8z"/>
		<path class="st0" d="M273.4,57.5c0.8,1.6,0.4,4-1.6,5.2c-4,4-7.6,8-10.8,12.4c-0.8,1.6-2.4,1.6-4,1.6c-10.8-2.4-22-4.8-32.8-6.8
			c-2-0.4-4.4-1.6-5.2-3.6c-1.6-2.8-0.8-6.8,2-8.4c1.2-0.8,2-0.8,3.2-0.8c4,0,7.6,0,11.6,0L273.4,57.5L273.4,57.5z"/>
		<path class="st0" d="M273.4,35c0.8,1.6,0,4-1.6,4.8c-3.6,2-6.8,4.8-10.4,7.2c-1.2,0.8-2,0.8-3.2,0.8c-10.4-2-20-4.8-30.4-7.6
			c-1.6-0.4-2.8-1.2-2.8-2.8c0-1.6,1.6-2.8,3.2-2.4l0,0C243,34.6,258.2,34.6,273.4,35C273,35,273.4,35,273.4,35z"/>
		<path class="st0" d="M273.4,43.9v8.8H261L273.4,43.9z"/>
		<path class="st0" d="M286.6,57.5c1.2,0,1.6,0,2,0c15.6,0,31.6,0,47.2,0c3.6-0.4,6.8,2,7.2,5.6c0.4,3.2-1.6,6.4-5.2,7.2
			c-11.6,2.4-23.2,4.8-35.2,7.2c-0.8,0-1.6-0.4-2-0.8c-4.4-4.8-8-9.2-12.4-14C287.4,60.7,287,59.1,286.6,57.5z"/>
		<path class="st0" d="M287.4,34.6h45.2c1.6,0,3.2,0.8,3.2,2.4c0,1.6-1.2,2.8-2.4,3.2l-16.4,4c-4.8,1.2-9.2,2-14,3.2
			c-1.6,0.4-2.8,0-4-0.8c-3.2-2.4-6.4-4.8-10-7.2C287.8,39,286.6,36.6,287.4,34.6z"/>
		<path class="st0" d="M299.8,52.7h-12.4v-8.8L299.8,52.7z"/>
	</g>
	<g>
		<g id="assets_login">
			<path class="st0" d="M3.2,143.1h18c13.6,0,21.2,10.4,21.2,24s-7.6,24-21.2,24h-18V143.1z M21.2,188c11.6,0,18-9.2,18-20.8
				s-6.4-21.2-18-21.2H6.4v42H21.2z"/>
			<path class="st0" d="M70.5,171.9l13.6,19.2h-4l-13.6-19.2h-9.6v19.2h-3.2v-48h17.6c9.6,0,13.2,7.2,13.2,14.4
				c0,7.2-3.6,14.4-13.6,14.4L70.5,171.9z M56.9,168.7h14c8,0,10.8-5.2,10.8-11.2s-3.2-11.2-10-11.2H56.9
				C56.9,146.3,56.9,168.7,56.9,168.7z"/>
			<path class="st0" d="M121.3,177.9H98.1l-5.2,13.2h-3.2l18.4-48h3.2l18.4,48h-3.2L121.3,177.9z M120.1,175.1l-10.4-28l-10.8,28
				H120.1z"/>
			<path class="st0" d="M133.3,167.1c0-13.2,10.4-24.4,24-24.4h0.4c5.2,0,10.4,1.6,14.8,5.2l-2,2.4c-3.6-2.8-8-4.4-12.4-4.4
				c-11.6,0-21.2,9.6-20.8,21.6l0,0l0,0c-0.4,11.6,9.2,21.2,20.8,21.6h0.4c9.6,0,17.6-5.6,18.8-16.4v-0.8h-14.8v-3.6h18.4
				c-0.4,15.6-9.6,23.2-22.4,23.2C144.1,191.6,133.3,180.7,133.3,167.1C133.3,167.5,133.3,167.5,133.3,167.1L133.3,167.1z"/>
			<path class="st0" d="M186.1,167.1c-0.4-13.2,10.4-24.4,23.6-24.8c13.2-0.4,24.4,10.4,24.8,23.6c0,0.4,0,0.8,0,1.2
				c0.8,13.2-9.6,24.8-23.2,25.2c-13.2,0.8-24.8-9.6-25.2-23.2c0-0.4,0-0.8,0-1.2C186.1,167.9,186.1,167.5,186.1,167.1z
				 M231.4,167.1c0.4-11.6-9.2-21.6-20.8-21.6l0,0l0,0c-11.6,0-21.2,9.6-20.8,21.6l0,0c0,11.6,9.6,21.2,21.2,21.2
				c11.2,0,20.4-8.8,20.8-20C231.4,167.9,231.4,167.5,231.4,167.1z"/>
			<path class="st0" d="M279,143.1v48h-3.6L249,148.3v42.8h-3.2v-48h3.6l26.8,42.8v-42.8H279z"/>
			<path class="st0" d="M297,146.3v20h18.4v3.2H297v22h-3.2v-48h26.4v2.8H297z"/>
			<path class="st0" d="M329.5,143.1h3.2V188h21.2v2.8h-24L329.5,143.1z"/>
			<path class="st0" d="M389.5,143.1l-18.4,25.2v22.8h-3.2v-22.8l-18-25.2h3.6l15.6,22l16-22H389.5z"/>
			<path class="st0" d="M407.9,167.1c0-13.6,10.8-24.4,24.4-24.4l0,0c7.6,0,14.4,3.6,19.2,9.2l-6.4,4.8c-2.8-4-7.6-6.4-12.4-6.4
				c-9.2,0-16,7.6-16,16.8s6.8,16.4,16,16.4c4.8,0,9.6-2.4,12.4-6.4l6.4,4.8c-4.4,6-11.6,9.2-19.2,9.2
				C418.7,191.6,407.9,180.7,407.9,167.1L407.9,167.1z"/>
			<path class="st0" d="M459.1,143.1h8.4v48h-8.4V143.1z"/>
			<path class="st0" d="M511.2,150.7h-13.6v40.4h-8.4v-40.4h-13.6v-7.6h36v7.6H511.2z"/>
			<path class="st0" d="M558,143.1l-18.4,26v21.6h-8.4v-22l-18.4-26h10l12.4,18.8l12.8-18.8h10V143.1z"/>
		</g>
	</g>
</g>
</svg>
